<?xml version="1.0" standalone="no"?>
<!DOCTYPE svg PUBLIC "-//W3C//DTD SVG 20010904//EN"
 "http://www.w3.org/TR/2001/REC-SVG-20010904/DTD/svg10.dtd">
<svg version="1.0" xmlns="http://www.w3.org/2000/svg"
 width="188.000000pt" height="188.000000pt" viewBox="0 0 188.000000 188.000000"
 preserveAspectRatio="xMidYMid meet">
<metadata>
Created by potrace 1.11, written by Peter Selinger 2001-2013
</metadata>
<g transform="translate(0.000000,188.000000) scale(0.100000,-0.100000)"
fill="#000000" stroke="none">
<path d="M348 1532 c-269 -268 -348 -353 -348 -372 0 -33 854 -892 915 -921
140 -65 289 69 238 216 -11 31 -83 110 -327 355 -172 173 -316 324 -320 334
-10 29 19 66 53 66 23 0 80 -52 348 -319 345 -344 351 -349 439 -335 50 8 73
20 105 56 58 64 59 161 1 230 -15 18 -156 162 -313 319 -158 158 -291 295
-297 305 -22 43 30 94 73 71 11 -6 206 -196 433 -422 l412 -413 0 -289 0 -289
-310 -1 c-283 -1 -313 -2 -330 -18 -11 -10 -20 -30 -20 -45 0 -54 4 -55 379
-56 335 -1 375 2 393 30 4 6 8 170 8 364 l0 353 -439 440 c-317 317 -451 444
-481 458 -39 17 -67 19 -127 6 -30 -7 -81 -51 -99 -88 -20 -38 -20 -117 1
-157 9 -17 153 -168 320 -335 167 -167 308 -312 314 -324 21 -38 -12 -80 -63
-81 -5 0 -152 143 -327 318 -176 174 -331 322 -346 329 -16 7 -47 12 -71 13
-131 1 -210 -118 -162 -245 6 -17 146 -166 325 -345 172 -173 315 -322 316
-330 8 -43 -29 -78 -68 -66 -10 3 -200 188 -423 411 l-405 405 318 318 c332
333 342 346 301 386 -41 42 -52 33 -416 -332z"/>
</g>
</svg>
